<svg xmlns="http://www.w3.org/2000/svg" version="1.1" xmlns:xlink="http://www.w3.org/1999/xlink" width="512" height="512" x="0" y="0" viewBox="0 0 512 512" style="enable-background:new 0 0 512 512" xml:space="preserve" class=""><g><path d="M256 152c-57.9 0-105 47.1-105 105s47.1 105 105 105 105-47.1 105-105-47.1-105-105-105zm0 0c-57.9 0-105 47.1-105 105s47.1 105 105 105 105-47.1 105-105-47.1-105-105-105zM437 0H75C33.6 0 0 33.6 0 75v362c0 41.4 33.6 75 75 75h362c41.4 0 75-33.6 75-75V75c0-41.4-33.6-75-75-75zM256 392c-74.399 0-135-60.601-135-135 0-74.401 60.601-135 135-135s135 60.599 135 135c0 74.399-60.601 135-135 135zm165-270c-16.5 0-30-13.5-30-30s13.5-30 30-30 30 13.5 30 30-13.5 30-30 30zm-165 30c-57.9 0-105 47.1-105 105s47.1 105 105 105 105-47.1 105-105-47.1-105-105-105zm0 0c-57.9 0-105 47.1-105 105s47.1 105 105 105 105-47.1 105-105-47.1-105-105-105zm0 0c-57.9 0-105 47.1-105 105s47.1 105 105 105 105-47.1 105-105-47.1-105-105-105z" fill="#000000" opacity="1" data-original="#000000" class=""></path></g></svg>