<svg width="350" height="74" viewBox="0 0 350 74" fill="none" xmlns="http://www.w3.org/2000/svg">
<path d="M332.92 42.8548C330.602 42.8548 312.174 43.3205 305.656 43.3205C299.138 43.3205 129.07 43.4886 129.07 43.4886L127.721 41.6716C126.478 39.9813 126.351 39.8757 126.098 40.2349C125.93 40.4673 124.454 42.7703 122.81 45.3902L119.818 50.144L119.712 45.8127L119.607 41.4815L118.279 44.2281C117.541 45.7282 116.171 48.6228 115.244 50.63C113.537 54.2429 113.2 54.6655 113.179 53.0597C113.179 50.9258 111.261 38.3334 110.881 37.9319C110.797 37.8474 110.607 38.3122 110.46 38.9883C109.912 41.4603 107.931 48.1157 106.877 50.9892C105.928 53.5457 100.154 65.5888 99.9638 65.3775C99.9217 65.3563 100.006 62.2505 100.154 58.5319C100.491 49.32 100.111 41.9674 98.9522 35.4599C98.5307 33.0724 97.5612 29.1214 97.3926 29.1214C97.3082 29.1214 96.971 29.9454 96.6549 30.9596C94.5894 37.4248 91.8495 42.4745 88.6881 45.7494L87.0021 47.4819L88.2666 49.2355C92.25 54.7711 92.9666 58.7221 90.3742 60.9194C88.2245 62.7364 85.611 62.3984 83.8196 60.0532C81.6909 57.2431 81.2694 52.616 82.8079 48.6439L83.4402 47.017L80.8689 43.8901C79.4568 42.1787 78.2344 40.7631 78.1501 40.7631C77.9183 40.7208 70.8156 50.0806 70.8156 50.3976C70.8156 50.5032 71.0896 51.2427 71.4268 52.0456C73.5977 57.2431 72.9232 63.2013 69.8251 66.5395C67.3802 69.1594 64.1977 69.3707 61.8372 67.0466C60.9099 66.1592 60.6991 65.8 60.5094 64.8281C59.9614 62.166 61.3735 58.8489 65.2515 53.6091C66.1157 52.447 66.8112 51.4328 66.8112 51.3483C66.8112 51.1159 64.8511 48.665 62.7013 46.193C61.6686 44.9887 60.5094 43.6365 60.1511 43.1928L59.5188 42.3688L56.7368 44.3126C55.1982 45.3902 53.9548 46.3409 53.9548 46.4466C53.9548 46.5522 54.2287 47.334 54.566 48.1791C55.5776 50.7567 56.8422 54.8979 57.348 57.3487C57.896 60.0743 58.0014 63.8985 57.5588 65.6733C56.5893 69.5186 54.0601 72.1174 50.5194 72.8569C46.3674 73.702 42.7212 71.0187 41.1616 65.9691C40.8665 64.9972 40.7822 64.0464 40.8033 61.6589C40.8033 58.9968 40.8876 58.3206 41.3723 56.4825C42.2575 53.2287 44.2176 49.4257 46.1566 47.2072L46.7678 46.51L45.4189 44.0591C42.6791 39.0728 38.8221 33.5372 36.3773 31.1286C33.4477 28.2129 29.2957 26.7551 23.9213 26.7551C19.5586 26.7551 16.0389 27.7059 12.9618 29.7764C11.086 31.0441 9.75822 32.4808 8.51473 34.6148C6.21744 38.5024 5.817 43.3619 7.3134 48.5594C9.18917 55.0669 14.0577 60.1588 19.2214 61.0251C22.3617 61.5744 26.1554 60.8983 29.0218 59.2925C30.7711 58.3418 33.0473 55.9543 33.8903 54.2218C34.9441 52.0456 35.4289 49.8694 35.45 47.1861C35.4921 42.4534 34.1222 39.7067 30.9818 38.2277C29.9702 37.7418 29.5487 37.6784 27.6097 37.6784C26.0079 37.6784 25.0805 37.784 24.2375 38.0798C18.9895 39.8757 16.3129 43.5309 17.9357 46.7001C18.4416 47.7143 20.1698 49.6158 21.3711 50.4821C22.446 51.2638 23.837 51.3272 24.8908 50.6088C26.5137 49.5313 27.7993 46.6579 27.42 44.9676C27.2092 44.038 26.5348 43.1506 25.8182 42.8548C25.5021 42.7069 25.6074 42.6646 26.3029 42.6646C28.6845 42.6224 30.0545 44.6718 29.8859 48.0101C29.7173 51.1159 28.1366 53.6724 25.6074 54.919C24.3639 55.5317 24.1321 55.574 22.5092 55.5106C21.0339 55.4472 20.5281 55.3204 19.3478 54.7289C17.725 53.926 15.9124 52.2357 14.7322 50.3976C11.8026 45.855 13.2147 40.425 18.2308 36.8332C24.385 32.4174 32.2043 32.502 36.4195 37.0445C37.115 37.784 37.9791 38.9883 38.3374 39.7278C40.6768 44.5028 40.5293 51.5596 38.0212 56.6726C37.0939 58.5531 36.1665 59.7785 34.5226 61.3631C32.0778 63.7083 29.4854 65.1239 26.029 65.9902C22.1299 66.9832 18.7788 66.8776 15.0694 65.6521C12.3717 64.7648 10.1797 63.3703 7.90353 61.1307C2.88742 56.1867 -1.03925e-06 49.2355 -1.34956e-06 42.1364C-1.53704e-06 37.8474 0.737661 34.8261 2.57128 31.5512C4.10983 28.8045 5.20579 27.3256 7.08156 25.5085C9.99006 22.7196 12.8353 21.0927 16.629 20.0997C18.3362 19.6349 19.2635 19.5504 22.5514 19.4658C26.1554 19.3602 26.6612 19.4025 29.1693 19.9095C32.3307 20.5645 34.902 21.473 37.2203 22.8041C41.0351 24.9592 45.7562 30.8328 50.1611 38.9038C51.0252 40.4884 51.805 41.7984 51.8893 41.7984C52.0158 41.7984 55.683 39.4531 56.5682 38.7982C56.6736 38.7348 56.2731 37.9108 55.683 36.9811C54.2709 34.7838 52.8588 31.9315 52.1211 29.8398C51.6153 28.382 51.5521 27.8538 51.531 25.6353C51.531 22.6351 51.8261 21.7688 53.4489 20.0152C55.3458 17.9869 57.6642 17.015 60.5937 17.015C62.9964 17.015 64.4506 17.5432 66.0313 18.9799C70.6259 23.1844 69.6986 31.2977 63.7973 38.2488C63.1439 39.0306 62.596 39.7067 62.596 39.7701C62.596 40.0447 69.3192 48.1368 69.53 48.1157C69.6986 48.1157 76.5694 39.918 76.7801 39.4954C76.9066 39.263 76.7169 38.777 76.2111 37.9319C75.3681 36.4952 74.1457 33.5372 73.682 31.7413C72.2277 26.1424 73.2815 22.783 76.4429 22.783C78.7613 22.783 80.8689 24.1352 81.9016 26.3325C82.4075 27.3889 82.4918 27.7904 82.4918 29.544C82.4918 31.9315 82.0492 33.6006 80.616 36.3896C80.068 37.4671 79.7308 38.3756 79.8362 38.5235C79.9205 38.6714 81.1218 40.1926 82.4918 41.8829L85.0209 44.9887L85.9272 44.0802C90.2478 39.8335 94.0625 29.1848 94.9688 18.9165C95.0531 18.0291 95.1796 17.2896 95.2428 17.2896C95.4957 17.3108 99.2472 22.5083 99.9849 23.8394C102.345 28.2129 103.631 33.7697 104.495 43.383L104.664 45.2845L105.444 42.8548C106.561 39.3686 108.036 33.6851 108.963 29.375L109.764 25.6353L111.24 28.6989C113.179 32.671 114.169 36.1571 114.907 41.5237C115.054 42.6013 115.223 43.4886 115.286 43.4886C115.349 43.4886 116.656 41.0378 118.174 38.0376C119.712 35.0585 121.251 32.0794 121.588 31.4455L122.22 30.2835L122.094 36.3473C122.03 39.7067 122.009 42.4322 122.073 42.4322C122.136 42.4322 123.063 41.1011 124.159 39.4743C125.255 37.8685 126.182 36.5375 126.246 36.5375C126.309 36.5375 126.962 37.4248 127.7 38.5235C128.459 39.6222 129.302 40.8054 129.597 41.1434L130.145 41.7772L316.396 42.0096C331.634 42.2421 335.221 42.3589 335.221 42.6547C335.221 42.7603 334.037 42.8548 332.92 42.8548ZM88.5406 54.4753C87.7608 52.8907 85.9904 50.2074 85.6532 50.1018C85.2527 49.975 84.8312 51.9822 84.8312 54.0527C84.8523 55.7853 84.9155 56.2078 85.4003 57.222C86.0536 58.5742 86.3487 58.9756 86.981 59.2925C87.529 59.6095 88.2877 59.3559 88.941 58.6587C89.5944 57.9615 89.4469 56.2923 88.5406 54.4753ZM80.2155 27.558C79.52 26.3536 78.2976 25.5085 77.0541 25.3818C76.2532 25.2761 76.0846 25.3395 75.8739 25.7621C75.4524 26.5227 75.7263 29.5651 76.4008 31.6568C77.0752 33.7485 78.3819 36.7276 78.6348 36.7276C78.8878 36.7276 80.068 34.3612 80.5528 32.9245C81.1218 31.192 80.9743 28.8679 80.2155 27.558ZM68.6448 55.4472C68.4973 54.8767 68.2865 54.3697 68.1811 54.3485C67.9071 54.264 65.7995 57.7079 64.6825 60.0532C64.0291 61.3842 63.7551 62.2928 63.6919 63.1379C63.6076 64.2365 63.6498 64.3844 64.1767 64.7859C65.8838 66.1381 68.1811 64.152 68.9188 60.7081C69.1506 59.6306 69.0031 56.7994 68.6448 55.4472ZM64.3663 24.262C63.7551 22.1703 61.7951 20.8392 59.8771 21.1984C57.5588 21.6209 55.7884 23.0999 55.5355 24.769C55.2193 26.8185 56.4207 30.3891 58.739 34.2345C59.287 35.143 59.7928 35.8825 59.8771 35.8825C60.0668 35.8825 61.4789 34.1711 62.322 32.9245C63.2704 31.5089 63.8184 30.368 64.261 28.7623C64.7668 26.9664 64.8089 25.7198 64.3663 24.262ZM51.1306 57.6445C50.5826 55.6374 49.6342 52.8273 49.2548 52.0667C49.0862 51.7075 48.9808 51.792 48.4328 52.6794C46.1355 56.3769 45.3346 61.6166 46.5571 64.8704C47.0629 66.2015 48.201 67.3635 48.9808 67.3635C49.7606 67.3635 50.8566 66.4973 51.3835 65.462C51.8472 64.5746 51.8682 64.3211 51.7839 62.0815C51.6996 60.3912 51.5099 59.039 51.1306 57.6445Z" fill="black"/>
<ellipse cx="347.899" cy="42.6428" rx="2.10084" ry="2.10084" fill="black"/>
<path d="M157.397 0.591644C157.921 1.63862 159.282 2.7205 160.713 3.31379C163.47 4.46546 167.413 4.36076 174.463 2.92989L175.58 2.6856V8.33927V13.9581L170.868 10.7473C168.286 9.00236 166.052 7.64129 165.947 7.78089C165.529 8.16478 166.122 9.10706 167.204 9.70034C167.972 10.154 168.251 10.5379 168.251 11.2708V12.2829L166.96 11.4802C165.354 10.503 161.445 10.3285 160.433 11.201C157.99 13.2601 157.223 14.8654 157.572 17.3084C157.886 19.7513 158.514 20.5889 163.26 25.056C170.24 31.6171 171.182 32.4197 171.671 32.4546C172.718 32.4546 171.776 31.2681 167.343 26.8708C162.248 21.7755 161.62 20.9379 161.62 19.0184C161.62 16.052 163.19 14.3768 166.366 14.0627L168.251 13.8534V15.1446C168.251 16.2614 168.146 16.401 167.378 16.401C166.89 16.401 166.087 16.8198 165.564 17.3084C164.028 18.8439 164.866 20.8681 167.727 22.5084C168.495 22.9621 169.437 23.3459 169.821 23.3808C172.648 23.66 173.137 22.7876 173.137 17.448V13.5742L174.358 14.5164L175.58 15.4238L175.615 23.3459L175.649 31.2332L179.802 33.9553C183.676 36.503 184.688 36.8869 184.653 35.8399C184.619 35.4211 181.966 33.2922 180.989 32.9432C180.535 32.7687 180.466 30.605 180.466 16.3661V-0.00164032H168.774C157.711 -0.00164032 157.083 0.0332565 157.397 0.591644Z" fill="black"/>
<path d="M202.452 0.349987C202.452 1.08287 205.104 3.14193 206.745 3.70031C208.036 4.11911 209.223 4.2238 211.247 4.08421L213.969 3.90971V7.67883V11.4479L212.015 11.5875C210.13 11.762 209.955 11.8318 208.071 13.8909C206.186 15.9499 205.977 16.0546 204.441 16.0546C203.569 16.0546 202.766 16.1942 202.662 16.3687C202.452 16.6828 213.725 25.1284 214.318 25.1284C214.492 25.1284 214.806 24.5701 215.016 23.907C215.679 21.8479 216.866 20.9405 218.785 20.9405C222.135 20.9405 221.996 20.7311 221.996 26.1405V30.9566L226.253 33.7137C228.592 35.2143 230.581 36.4707 230.686 36.4707C230.79 36.4707 230.93 36.2264 231 35.9472C231.035 35.6331 230.232 34.8653 228.976 34.0278L226.882 32.6318V16.2989V0.000995636H214.667C206.745 0.000995636 202.452 0.140591 202.452 0.349987ZM221.996 11.3781C221.996 16.0895 221.891 19.8936 221.751 19.8238C218.89 18.358 218.017 18.1137 216.656 18.3231C214.772 18.6372 212.713 19.7191 212.224 20.5915C211.735 21.4989 211.421 21.464 209.921 20.452L208.699 19.6493L211.351 17.6251L213.969 15.601L216.412 15.8104L218.855 16.0197L218.925 9.66809L219.029 3.31642L220.076 3.10703C220.67 2.96743 221.333 2.86273 221.577 2.82784C221.891 2.79293 221.996 4.71239 221.996 11.3781Z" fill="black"/>
<path d="M249.217 0.314423C249.217 0.907711 251.172 2.54797 252.707 3.24596C254.452 4.01374 257.105 4.18824 261.013 3.69965L263.526 3.42046V7.60836V11.7963L261.746 11.1332C260.769 10.7493 259.059 10.3654 257.942 10.2258C253.929 9.80702 250.718 12.3198 249.706 16.6473C249.113 19.16 249.043 23.0338 249.601 23.0338C250.09 23.0338 264.608 31.7586 268.866 34.6204C270.541 35.7372 272.076 36.5747 272.251 36.47C272.984 36.0163 272.53 35.3882 270.506 34.062L268.412 32.7358V24.36V15.9842L269.215 16.4728C269.633 16.752 270.331 17.2057 270.785 17.4848C271.553 17.9734 271.553 18.113 271.553 24.6043V31.2351L275.741 33.9224C278.044 35.4231 280.068 36.6445 280.278 36.6445C280.452 36.6445 280.627 36.3653 280.627 35.9814C280.627 35.5627 279.859 34.8647 278.533 33.9922L276.439 32.666V23.9063V15.1466L274.17 13.8553C272.949 13.1573 271.867 12.5641 271.762 12.5641C271.657 12.5641 271.553 13.262 271.483 14.1345L271.378 15.705L269.913 14.7976L268.412 13.9251V8.41105V2.89697L272.146 2.05939C275.043 1.4312 275.95 1.08221 276.02 0.593616C276.125 0.0352287 275.322 0.000331879 262.688 0.000331879C255.29 0.000331879 249.217 0.139927 249.217 0.314423ZM263.526 15.5305C263.526 16.6124 263.421 16.752 262.165 17.101C259.722 17.764 256.965 21.4634 256.93 24.1506C256.895 25.2674 256.511 25.3721 255.325 24.5694C254.592 24.0808 254.452 23.7318 254.452 22.3358C254.452 17.7291 257.593 14.3439 261.886 14.309H263.526V15.5305Z" fill="black"/>
<path d="M280.242 0.591644C280.766 1.63862 282.127 2.7205 283.558 3.31379C286.315 4.46546 290.258 4.36076 297.308 2.92989L298.425 2.6856V8.33927V13.9581L293.713 10.7473C291.131 9.00236 288.897 7.64129 288.793 7.78089C288.374 8.16478 288.967 9.10706 290.049 9.70034C290.817 10.154 291.096 10.5379 291.096 11.2708V12.2829L289.805 11.4802C288.199 10.503 284.291 10.3285 283.279 11.201C280.836 13.2601 280.068 14.8654 280.417 17.3084C280.731 19.7513 281.359 20.5889 286.105 25.056C293.085 31.6171 294.028 32.4197 294.516 32.4546C295.563 32.4546 294.621 31.2681 290.189 26.8708C285.093 21.7755 284.465 20.9379 284.465 19.0184C284.465 16.052 286.036 14.3768 289.211 14.0627L291.096 13.8534V15.1446C291.096 16.2614 290.991 16.401 290.224 16.401C289.735 16.401 288.932 16.8198 288.409 17.3084C286.873 18.8439 287.711 20.8681 290.573 22.5084C291.34 22.9621 292.283 23.3459 292.667 23.3808C295.493 23.66 295.982 22.7876 295.982 17.448V13.5742L297.203 14.5164L298.425 15.4238L298.46 23.3459L298.495 31.2332L302.648 33.9553C306.522 36.503 307.534 36.8869 307.499 35.8399C307.464 35.4211 304.811 33.2922 303.834 32.9432C303.381 32.7687 303.311 30.605 303.311 16.3661V-0.00164032H291.62C280.556 -0.00164032 279.928 0.0332565 280.242 0.591644Z" fill="black"/>
<path d="M129.513 1.04723C130.594 3.03648 135.096 4.74655 138.517 4.43245L140.68 4.22306V7.22439V10.1908L139.564 9.94653C135.864 9.03915 132.619 10.5049 131.956 13.3667C131.362 16.0539 133.456 18.9505 137.574 21.1143C142.46 23.6968 145.566 22.1264 145.566 17.1009C145.566 16.1586 145.671 15.3559 145.776 15.3559C145.88 15.3559 146.578 15.7747 147.346 16.2982L148.707 17.2754V24.2552L148.742 31.2351L152.93 33.9572C155.233 35.423 157.257 36.5746 157.467 36.4699C158.165 36.0163 157.676 35.3532 155.687 34.027L153.593 32.631V16.5076V0.349247H141.378C129.233 0.349247 129.129 0.349243 129.513 1.04723ZM148.707 8.58546V14.6928L147.241 13.8203L145.741 12.913L145.636 8.06198L145.531 3.21098L146.858 2.86199C147.59 2.68749 148.288 2.513 148.463 2.4781C148.602 2.4432 148.707 5.20024 148.707 8.58546Z" fill="black"/>
<path d="M307.499 1.39549C308.93 3.38475 313.328 4.81562 316.643 4.39682L318.318 4.15253V7.15387C318.318 8.79413 318.214 10.1203 318.074 10.1203C317.899 10.0854 317.097 9.9458 316.224 9.77131C311.792 8.89883 308.232 12.4934 309.908 16.2277C311.164 19.0196 316.12 22.335 319.086 22.335C321.738 22.335 322.855 21.0438 323.169 17.5538L323.379 15.425L324.879 16.2975L326.345 17.1699V24.2894C326.345 28.8263 326.485 31.4088 326.694 31.4088C327.008 31.4088 331.056 34.0961 333.779 36.0853C334.511 36.6088 334.826 36.6786 335.14 36.3645C335.663 35.841 334.86 34.9337 332.732 33.5726L331.231 32.6303V16.472V0.348515H318.981H306.767L307.499 1.39549ZM326.345 8.61963V14.6921L324.879 13.8196L323.379 12.9122L323.274 8.09614L323.169 3.28005L324.321 2.93106C326.45 2.30287 326.345 2.05858 326.345 8.61963Z" fill="black"/>
<path d="M137.19 31.7234C137.19 31.8979 139.493 33.2241 142.355 34.6549C145.182 36.1207 147.974 37.5167 148.532 37.8308C150.591 38.9126 152.197 38.1449 152.197 36.0509C152.197 34.8643 151.429 34.0267 149.789 33.4684C148.532 33.0147 148.044 33.259 148.672 33.9918C149.265 34.7247 149.021 36.0858 148.253 36.2254C147.904 36.2952 145.461 35.2482 142.774 33.8871C137.958 31.4093 137.19 31.1301 137.19 31.7234Z" fill="black"/>
<path d="M164.761 31.6541C164.761 32.2125 176.871 38.3896 177.953 38.3896C179 38.3896 179.838 37.2031 179.698 35.9118C179.593 34.6903 178.512 33.6783 176.906 33.2944C175.999 33.085 175.964 33.1199 176.348 34.1319C176.801 35.3185 176.522 36.2957 175.72 36.2957C175.406 36.2957 172.963 35.1789 170.31 33.8527C165.634 31.4796 164.761 31.1306 164.761 31.6541Z" fill="black"/>
<path d="M210.48 31.7233C210.48 31.8978 213.377 33.5032 216.936 35.318C223.218 38.4938 223.393 38.5636 224.335 38.0401C225.138 37.5864 225.312 37.2374 225.312 36.1555C225.312 34.6898 224.405 33.7475 222.625 33.2938C221.718 33.0844 221.683 33.1193 222.067 34.1314C222.52 35.318 222.241 36.2951 221.438 36.2951C221.124 36.2951 218.681 35.1784 216.029 33.8522C211.213 31.4093 210.48 31.1301 210.48 31.7233Z" fill="black"/>
<path d="M130.699 50.8861H142.8V53.2307H137.909V69.113H135.463V53.2307H130.699V50.8861Z" fill="black"/>
<path d="M146.103 69.113V49.6004H148.398V61.0962L148.347 60.6676C148.7 59.9786 149.238 59.4071 149.961 58.9533C150.7 58.4996 151.566 58.2727 152.557 58.2727C153.549 58.2727 154.356 58.5668 154.977 59.155C155.616 59.7265 155.944 60.4743 155.961 61.3987V69.113H153.591V62.2307C153.574 61.6592 153.406 61.197 153.087 60.8441C152.784 60.4743 152.305 60.2895 151.65 60.2895C151.045 60.2895 150.498 60.4659 150.011 60.8189C149.524 61.155 149.137 61.6172 148.851 62.2054C148.582 62.7937 148.448 63.4659 148.448 64.2222V69.113H146.103Z" fill="black"/>
<path d="M164.878 69.3651C163.685 69.3651 162.66 69.1298 161.803 68.6592C160.946 68.1718 160.282 67.5164 159.811 66.6928C159.357 65.8525 159.13 64.8945 159.13 63.8189C159.13 62.7937 159.391 61.8609 159.912 61.0206C160.433 60.1802 161.13 59.508 162.004 59.0038C162.878 58.4996 163.853 58.2475 164.929 58.2475C166.307 58.2475 167.45 58.6508 168.357 59.4575C169.265 60.2643 169.878 61.3735 170.198 62.7853L161.601 65.8105L161.046 64.4239L168.105 61.8525L167.601 62.1802C167.399 61.6256 167.063 61.1466 166.593 60.7433C166.122 60.3231 165.509 60.113 164.752 60.113C164.114 60.113 163.542 60.2727 163.038 60.592C162.534 60.8945 162.139 61.3147 161.853 61.8525C161.567 62.3903 161.424 63.0038 161.424 63.6928C161.424 64.4155 161.576 65.0542 161.878 65.6088C162.181 66.1466 162.593 66.5752 163.114 66.8945C163.651 67.197 164.256 67.3483 164.929 67.3483C165.382 67.3483 165.819 67.2643 166.24 67.0962C166.677 66.9281 167.08 66.7096 167.45 66.4407L168.534 68.1802C168.013 68.5332 167.424 68.8189 166.769 69.0374C166.13 69.2559 165.5 69.3651 164.878 69.3651Z" fill="black"/>
<path d="M179.877 69.113L187.843 50.1298H187.994L195.936 69.113H193.137L187.188 53.9617L188.927 52.8273L182.272 69.113H179.877ZM184.541 62.2054H191.322L192.129 64.3231H183.835L184.541 62.2054Z" fill="black"/>
<path d="M200.881 58.676L201.108 61.7012L200.982 61.2979C201.251 60.6592 201.637 60.1214 202.142 59.6844C202.663 59.2307 203.2 58.8861 203.755 58.6508C204.326 58.3987 204.822 58.2727 205.242 58.2727L205.116 60.592C204.326 60.5416 203.629 60.6928 203.024 61.0458C202.436 61.3987 201.965 61.8693 201.612 62.4575C201.276 63.0458 201.108 63.676 201.108 64.3483V69.113H198.789V58.676H200.881Z" fill="black"/>
<path d="M209.275 54.0878H211.62V58.7265H214.494V60.5668H211.62V69.113H209.275V60.5668H207.359V58.7265H209.275V54.0878Z" fill="black"/>
<path d="M224.396 63.7937C224.396 62.7517 224.64 61.8105 225.127 60.9701C225.631 60.1298 226.32 59.4659 227.194 58.9786C228.068 58.4912 229.06 58.2475 230.169 58.2475C231.312 58.2475 232.312 58.4912 233.169 58.9786C234.026 59.4659 234.69 60.1298 235.161 60.9701C235.631 61.8105 235.866 62.7517 235.866 63.7937C235.866 64.8357 235.631 65.7853 235.161 66.6424C234.69 67.4828 234.018 68.1466 233.144 68.634C232.287 69.1214 231.287 69.3651 230.144 69.3651C229.035 69.3651 228.043 69.1382 227.169 68.6844C226.312 68.2138 225.631 67.5668 225.127 66.7433C224.64 65.9029 224.396 64.9197 224.396 63.7937ZM226.74 63.8189C226.74 64.4912 226.892 65.1046 227.194 65.6592C227.497 66.197 227.9 66.6256 228.404 66.9449C228.925 67.2643 229.497 67.4239 230.119 67.4239C230.774 67.4239 231.354 67.2643 231.858 66.9449C232.379 66.6256 232.782 66.197 233.068 65.6592C233.354 65.1046 233.497 64.4912 233.497 63.8189C233.497 63.1466 233.354 62.5416 233.068 62.0038C232.782 61.4491 232.379 61.0122 231.858 60.6928C231.354 60.3567 230.774 60.1886 230.119 60.1886C229.48 60.1886 228.9 60.3567 228.379 60.6928C227.875 61.029 227.472 61.4743 227.169 62.029C226.883 62.5668 226.74 63.1634 226.74 63.8189Z" fill="black"/>
<path d="M239.898 69.113V60.7685H238.108V58.676H239.898V54.2643C239.898 52.7517 240.234 51.592 240.907 50.7853C241.596 49.9786 242.604 49.5752 243.932 49.5752C244.285 49.5752 244.671 49.6256 245.091 49.7265C245.528 49.8273 245.907 49.9954 246.226 50.2307L245.243 51.9197C245.091 51.7685 244.923 51.6676 244.738 51.6172C244.554 51.55 244.369 51.5164 244.184 51.5164C243.562 51.5164 243.083 51.7265 242.747 52.1466C242.411 52.5668 242.243 53.2811 242.243 54.2895V58.676H245.545V60.7685H242.243V69.113H239.898Z" fill="black"/>
<path d="M272.931 69.6928L258.839 55.3987L259.545 55.5752L259.595 69.113H257.15V50.3315H257.276L271.217 64.676L270.637 64.55L270.587 50.8861H273.007V69.6928H272.931Z" fill="black"/>
<path d="M282.509 69.3651C281.316 69.3651 280.29 69.1298 279.433 68.6592C278.576 68.1718 277.912 67.5164 277.442 66.6928C276.988 65.8525 276.761 64.8945 276.761 63.8189C276.761 62.7937 277.021 61.8609 277.542 61.0206C278.063 60.1802 278.761 59.508 279.635 59.0038C280.509 58.4996 281.484 58.2475 282.559 58.2475C283.937 58.2475 285.08 58.6508 285.988 59.4575C286.895 60.2643 287.509 61.3735 287.828 62.7853L279.232 65.8105L278.677 64.4239L285.736 61.8525L285.232 62.1802C285.03 61.6256 284.694 61.1466 284.223 60.7433C283.753 60.3231 283.139 60.113 282.383 60.113C281.744 60.113 281.173 60.2727 280.669 60.592C280.164 60.8945 279.769 61.3147 279.484 61.8525C279.198 62.3903 279.055 63.0038 279.055 63.6928C279.055 64.4155 279.206 65.0542 279.509 65.6088C279.811 66.1466 280.223 66.5752 280.744 66.8945C281.282 67.197 281.887 67.3483 282.559 67.3483C283.013 67.3483 283.45 67.2643 283.87 67.0962C284.307 66.9281 284.711 66.7096 285.08 66.4407L286.164 68.1802C285.643 68.5332 285.055 68.8189 284.4 69.0374C283.761 69.2559 283.131 69.3651 282.509 69.3651Z" fill="black"/>
<path d="M295.606 69.3651C294.413 69.3651 293.388 69.1298 292.531 68.6592C291.674 68.1718 291.01 67.5164 290.539 66.6928C290.085 65.8525 289.858 64.8945 289.858 63.8189C289.858 62.7937 290.119 61.8609 290.64 61.0206C291.161 60.1802 291.858 59.508 292.732 59.0038C293.606 58.4996 294.581 58.2475 295.657 58.2475C297.035 58.2475 298.178 58.6508 299.085 59.4575C299.993 60.2643 300.606 61.3735 300.926 62.7853L292.329 65.8105L291.774 64.4239L298.833 61.8525L298.329 62.1802C298.127 61.6256 297.791 61.1466 297.321 60.7433C296.85 60.3231 296.237 60.113 295.48 60.113C294.842 60.113 294.27 60.2727 293.766 60.592C293.262 60.8945 292.867 61.3147 292.581 61.8525C292.295 62.3903 292.153 63.0038 292.153 63.6928C292.153 64.4155 292.304 65.0542 292.606 65.6088C292.909 66.1466 293.321 66.5752 293.842 66.8945C294.379 67.197 294.984 67.3483 295.657 67.3483C296.11 67.3483 296.547 67.2643 296.968 67.0962C297.405 66.9281 297.808 66.7096 298.178 66.4407L299.262 68.1802C298.741 68.5332 298.153 68.8189 297.497 69.0374C296.858 69.2559 296.228 69.3651 295.606 69.3651Z" fill="black"/>
<path d="M308.099 69.3651C307.141 69.3651 306.267 69.1382 305.477 68.6844C304.704 68.2138 304.09 67.5584 303.636 66.718C303.183 65.8609 302.956 64.8777 302.956 63.7685C302.956 62.6088 303.191 61.6172 303.662 60.7937C304.149 59.9701 304.805 59.3399 305.628 58.9029C306.452 58.4659 307.376 58.2475 308.401 58.2475C309.225 58.2475 310.006 58.4239 310.746 58.7769C311.502 59.1298 312.09 59.6172 312.51 60.2391L312.41 61.071V49.6004H314.729V69.113H312.384V66.5164L312.636 67.1718C312.149 67.8105 311.519 68.3399 310.746 68.7601C309.973 69.1634 309.09 69.3651 308.099 69.3651ZM308.83 67.3735C309.452 67.3735 310.006 67.2643 310.494 67.0458C310.981 66.8105 311.384 66.4912 311.704 66.0878C312.023 65.6844 312.25 65.2054 312.384 64.6508V62.6844C312.25 62.1802 312.006 61.7433 311.653 61.3735C311.317 60.987 310.905 60.6844 310.418 60.4659C309.947 60.2307 309.418 60.113 308.83 60.113C308.191 60.113 307.603 60.2727 307.065 60.592C306.544 60.8945 306.124 61.3147 305.805 61.8525C305.485 62.3903 305.326 63.0122 305.326 63.718C305.326 64.4071 305.485 65.029 305.805 65.5836C306.124 66.1214 306.552 66.5584 307.09 66.8945C307.628 67.2138 308.208 67.3735 308.83 67.3735Z" fill="black"/>
<path d="M318.807 49.6004H321.152V69.113H318.807V49.6004Z" fill="black"/>
<path d="M330.049 69.3651C328.855 69.3651 327.83 69.1298 326.973 68.6592C326.116 68.1718 325.452 67.5164 324.981 66.6928C324.528 65.8525 324.301 64.8945 324.301 63.8189C324.301 62.7937 324.561 61.8609 325.082 61.0206C325.603 60.1802 326.301 59.508 327.175 59.0038C328.049 58.4996 329.023 58.2475 330.099 58.2475C331.477 58.2475 332.62 58.6508 333.528 59.4575C334.435 60.2643 335.049 61.3735 335.368 62.7853L326.771 65.8105L326.217 64.4239L333.275 61.8525L332.771 62.1802C332.57 61.6256 332.233 61.1466 331.763 60.7433C331.292 60.3231 330.679 60.113 329.923 60.113C329.284 60.113 328.712 60.2727 328.208 60.592C327.704 60.8945 327.309 61.3147 327.023 61.8525C326.738 62.3903 326.595 63.0038 326.595 63.6928C326.595 64.4155 326.746 65.0542 327.049 65.6088C327.351 66.1466 327.763 66.5752 328.284 66.8945C328.822 67.197 329.427 67.3483 330.099 67.3483C330.553 67.3483 330.99 67.2643 331.41 67.0962C331.847 66.9281 332.25 66.7096 332.62 66.4407L333.704 68.1802C333.183 68.5332 332.595 68.8189 331.939 69.0374C331.301 69.2559 330.67 69.3651 330.049 69.3651Z" fill="black"/>
</svg>
