<svg width="350" height="57" viewBox="0 0 350 57" fill="none" xmlns="http://www.w3.org/2000/svg">
<path d="M332.92 25.8548C330.602 25.8548 312.174 26.3205 305.656 26.3205C299.138 26.3205 129.07 26.4886 129.07 26.4886L127.721 24.6716C126.478 22.9813 126.351 22.8757 126.098 23.2349C125.93 23.4673 124.454 25.7703 122.81 28.3902L119.818 33.144L119.712 28.8127L119.607 24.4815L118.279 27.2281C117.541 28.7282 116.171 31.6228 115.244 33.63C113.537 37.2429 113.2 37.6655 113.179 36.0597C113.179 33.9258 111.261 21.3334 110.881 20.9319C110.797 20.8474 110.607 21.3122 110.46 21.9883C109.912 24.4603 107.931 31.1157 106.877 33.9892C105.928 36.5457 100.154 48.5888 99.9638 48.3775C99.9217 48.3563 100.006 45.2505 100.154 41.5319C100.491 32.32 100.111 24.9674 98.9522 18.4599C98.5307 16.0724 97.5612 12.1214 97.3926 12.1214C97.3082 12.1214 96.971 12.9454 96.6549 13.9596C94.5894 20.4248 91.8495 25.4745 88.6881 28.7494L87.0021 30.4819L88.2666 32.2355C92.25 37.7711 92.9666 41.7221 90.3742 43.9194C88.2245 45.7364 85.611 45.3984 83.8196 43.0532C81.6909 40.2431 81.2694 35.616 82.8079 31.6439L83.4402 30.017L80.8689 26.8901C79.4568 25.1787 78.2344 23.7631 78.1501 23.7631C77.9183 23.7208 70.8156 33.0806 70.8156 33.3976C70.8156 33.5032 71.0896 34.2427 71.4268 35.0456C73.5977 40.2431 72.9232 46.2013 69.8251 49.5395C67.3802 52.1594 64.1977 52.3707 61.8372 50.0466C60.9099 49.1592 60.6991 48.8 60.5094 47.8281C59.9614 45.166 61.3735 41.8489 65.2515 36.6091C66.1157 35.447 66.8112 34.4328 66.8112 34.3483C66.8112 34.1159 64.8511 31.665 62.7013 29.193C61.6686 27.9887 60.5094 26.6365 60.1511 26.1928L59.5188 25.3688L56.7368 27.3126C55.1982 28.3902 53.9548 29.3409 53.9548 29.4466C53.9548 29.5522 54.2287 30.334 54.566 31.1791C55.5776 33.7567 56.8422 37.8979 57.348 40.3487C57.896 43.0743 58.0014 46.8985 57.5588 48.6733C56.5893 52.5186 54.0601 55.1174 50.5194 55.8569C46.3674 56.702 42.7212 54.0187 41.1616 48.9691C40.8665 47.9972 40.7822 47.0464 40.8033 44.6589C40.8033 41.9968 40.8876 41.3206 41.3723 39.4825C42.2575 36.2287 44.2176 32.4257 46.1566 30.2072L46.7678 29.51L45.4189 27.0591C42.6791 22.0728 38.8221 16.5372 36.3773 14.1286C33.4477 11.2129 29.2957 9.75509 23.9213 9.75509C19.5586 9.75509 16.0389 10.7059 12.9618 12.7764C11.086 14.0441 9.75822 15.4808 8.51473 17.6148C6.21744 21.5024 5.817 26.3619 7.3134 31.5594C9.18917 38.0669 14.0577 43.1588 19.2214 44.0251C22.3617 44.5744 26.1554 43.8983 29.0218 42.2925C30.7711 41.3418 33.0473 38.9543 33.8903 37.2218C34.9441 35.0456 35.4289 32.8694 35.45 30.1861C35.4921 25.4534 34.1222 22.7067 30.9818 21.2277C29.9702 20.7418 29.5487 20.6784 27.6097 20.6784C26.0079 20.6784 25.0805 20.784 24.2375 21.0798C18.9895 22.8757 16.3129 26.5309 17.9357 29.7001C18.4416 30.7143 20.1698 32.6158 21.3711 33.4821C22.446 34.2638 23.837 34.3272 24.8908 33.6088C26.5137 32.5313 27.7993 29.6579 27.42 27.9676C27.2092 27.038 26.5348 26.1506 25.8182 25.8548C25.5021 25.7069 25.6074 25.6646 26.3029 25.6646C28.6845 25.6224 30.0545 27.6718 29.8859 31.0101C29.7173 34.1159 28.1366 36.6724 25.6074 37.919C24.3639 38.5317 24.1321 38.574 22.5092 38.5106C21.0339 38.4472 20.5281 38.3204 19.3478 37.7289C17.725 36.926 15.9124 35.2357 14.7322 33.3976C11.8026 28.855 13.2147 23.425 18.2308 19.8332C24.385 15.4174 32.2043 15.502 36.4195 20.0445C37.115 20.784 37.9791 21.9883 38.3374 22.7278C40.6768 27.5028 40.5293 34.5596 38.0212 39.6726C37.0939 41.5531 36.1665 42.7785 34.5226 44.3631C32.0778 46.7083 29.4854 48.1239 26.029 48.9902C22.1299 49.9832 18.7788 49.8776 15.0694 48.6521C12.3717 47.7648 10.1797 46.3703 7.90353 44.1307C2.88742 39.1867 -1.03925e-06 32.2355 -1.34956e-06 25.1364C-1.53704e-06 20.8474 0.737661 17.8261 2.57128 14.5512C4.10983 11.8045 5.20579 10.3256 7.08156 8.50853C9.99006 5.7196 12.8353 4.09272 16.629 3.0997C18.3362 2.63488 19.2635 2.55036 22.5514 2.46585C26.1554 2.36021 26.6612 2.40247 29.1693 2.90955C32.3307 3.56452 34.902 4.47303 37.2203 5.80411C41.0351 7.95918 45.7562 13.8328 50.1611 21.9038C51.0252 23.4884 51.805 24.7984 51.8893 24.7984C52.0158 24.7984 55.683 22.4531 56.5682 21.7982C56.6736 21.7348 56.2731 20.9108 55.683 19.9811C54.2709 17.7838 52.8588 14.9315 52.1211 12.8398C51.6153 11.382 51.5521 10.8538 51.531 8.63529C51.531 5.63508 51.8261 4.76882 53.4489 3.01518C55.3458 0.986871 57.6642 0.014974 60.5937 0.0149739C62.9964 0.0149737 64.4506 0.543176 66.0313 1.97989C70.6259 6.18441 69.6986 14.2977 63.7973 21.2488C63.1439 22.0306 62.596 22.7067 62.596 22.7701C62.596 23.0447 69.3192 31.1368 69.53 31.1157C69.6986 31.1157 76.5694 22.918 76.7801 22.4954C76.9066 22.263 76.7169 21.777 76.2111 20.9319C75.3681 19.4952 74.1457 16.5372 73.682 14.7413C72.2277 9.14237 73.2815 5.78299 76.4429 5.78299C78.7613 5.78299 80.8689 7.13519 81.9016 9.33252C82.4075 10.3889 82.4918 10.7904 82.4918 12.544C82.4918 14.9315 82.0492 16.6006 80.616 19.3896C80.068 20.4671 79.7308 21.3756 79.8362 21.5235C79.9205 21.6714 81.1218 23.1926 82.4918 24.8829L85.0209 27.9887L85.9272 27.0802C90.2478 22.8335 94.0625 12.1848 94.9688 1.91652C95.0531 1.02913 95.1796 0.289638 95.2428 0.289638C95.4957 0.310768 99.2472 5.50831 99.9849 6.83939C102.345 11.2129 103.631 16.7697 104.495 26.383L104.664 28.2845L105.444 25.8548C106.561 22.3686 108.036 16.6851 108.963 12.375L109.764 8.63529L111.24 11.6989C113.179 15.671 114.169 19.1571 114.907 24.5237C115.054 25.6013 115.223 26.4886 115.286 26.4886C115.349 26.4886 116.656 24.0378 118.174 21.0376C119.712 18.0585 121.251 15.0794 121.588 14.4455L122.22 13.2835L122.094 19.3473C122.03 22.7067 122.009 25.4322 122.073 25.4322C122.136 25.4322 123.063 24.1011 124.159 22.4743C125.255 20.8685 126.182 19.5375 126.246 19.5375C126.309 19.5375 126.962 20.4248 127.7 21.5235C128.459 22.6222 129.302 23.8054 129.597 24.1434L130.145 24.7772L316.396 25.0096C331.634 25.2421 335.221 25.3589 335.221 25.6547C335.221 25.7603 334.037 25.8548 332.92 25.8548ZM88.5406 37.4753C87.7608 35.8907 85.9904 33.2074 85.6532 33.1018C85.2527 32.975 84.8312 34.9822 84.8312 37.0527C84.8523 38.7853 84.9155 39.2078 85.4003 40.222C86.0536 41.5742 86.3487 41.9756 86.981 42.2925C87.529 42.6095 88.2877 42.3559 88.941 41.6587C89.5944 40.9615 89.4469 39.2923 88.5406 37.4753ZM80.2155 10.558C79.52 9.35365 78.2976 8.50852 77.0541 8.38175C76.2532 8.27611 76.0846 8.33949 75.8739 8.76205C75.4524 9.52267 75.7263 12.5651 76.4008 14.6568C77.0752 16.7485 78.3819 19.7276 78.6348 19.7276C78.8878 19.7276 80.068 17.3612 80.5528 15.9245C81.1218 14.192 80.9743 11.8679 80.2155 10.558ZM68.6448 38.4472C68.4973 37.8767 68.2865 37.3697 68.1811 37.3485C67.9071 37.264 65.7995 40.7079 64.6825 43.0532C64.0291 44.3842 63.7551 45.2928 63.6919 46.1379C63.6076 47.2365 63.6498 47.3844 64.1767 47.7859C65.8838 49.1381 68.1811 47.152 68.9188 43.7081C69.1506 42.6306 69.0031 39.7994 68.6448 38.4472ZM64.3663 7.26195C63.7551 5.17026 61.7951 3.83918 59.8771 4.19837C57.5588 4.62093 55.7884 6.0999 55.5355 7.76903C55.2193 9.81847 56.4207 13.3891 58.739 17.2345C59.287 18.143 59.7928 18.8825 59.8771 18.8825C60.0668 18.8825 61.4789 17.1711 62.322 15.9245C63.2704 14.5089 63.8184 13.368 64.261 11.7623C64.7668 9.96637 64.8089 8.7198 64.3663 7.26195ZM51.1306 40.6445C50.5826 38.6374 49.6342 35.8273 49.2548 35.0667C49.0862 34.7075 48.9808 34.792 48.4328 35.6794C46.1355 39.3769 45.3346 44.6166 46.5571 47.8704C47.0629 49.2015 48.201 50.3635 48.9808 50.3635C49.7606 50.3635 50.8566 49.4973 51.3835 48.462C51.8472 47.5746 51.8682 47.3211 51.7839 45.0815C51.6996 43.3912 51.5099 42.039 51.1306 40.6445Z" fill="black"/>
<ellipse cx="347.899" cy="25.6428" rx="2.10084" ry="2.10084" fill="black"/>
</svg>
